<svg width="190" height="20" fill="none" xmlns="http://www.w3.org/2000/svg"><path d="M10.447 19.42H5.33c-2.724 0-4.72-1.881-4.72-4.454V4.736C.61 2.16 2.607.277 5.33.277h5.18a4.6 4.6 0 0 1 3.326 1.343 4.54 4.54 0 0 1 1.325 3.314v1.154h-3.401V4.636a1.227 1.227 0 0 0-.339-.839 1.243 1.243 0 0 0-.823-.384H5.151c-.314.019-.61.156-.826.383a1.227 1.227 0 0 0-.34.84v10.462c.002.313.123.613.34.84.216.228.512.364.826.383h5.448c.313-.02.608-.157.823-.384.216-.227.337-.527.339-.839v-1.483h3.387v1.373c.014 2.55-1.977 4.433-4.701 4.433ZM33.636 8.464l-4.25 4.194v6.763h-3.392v-6.763l-4.25-4.194a3.605 3.605 0 0 1-1.263-3.068V.276h3.318v4.987c0 .692 0 .792.434 1.186l3.424 3.466L31.11 6.45c.433-.394.433-.494.433-1.186V.277h3.355v5.119a3.663 3.663 0 0 1-1.263 3.068ZM49.52 19.42h-9.302V.278h9.302c2.723 0 4.784 1.95 4.784 4.524v1.946A3.607 3.607 0 0 1 53.01 9.75a3.312 3.312 0 0 1 1.295 2.775v2.377c0 2.573-2.06 4.519-4.784 4.519Zm1.383-14.853c0-.323-.119-.635-.333-.878a1.34 1.34 0 0 0-.834-.44h-6.245v4.986h5.913c1.199 0 1.498-.367 1.498-1.52V4.567Zm0 8.242c0-1.223-.3-1.584-1.383-1.584h-6.048v5.247h6.246c.323-.042.62-.2.834-.443.214-.244.333-.557.332-.88l.019-2.34ZM59.618 19.42V.278h12.495v3.072h-9.19V8.3h7.112v3.136h-7.112v4.918h9.172v3.068H59.618ZM88.458 19.42v-6.41c0-1.222-.3-1.584-1.382-1.584h-6.38v7.986h-3.29V.277h9.679c2.724 0 4.72 1.882 4.72 4.46v2.078a3.76 3.76 0 0 1-1.3 3.004 3.238 3.238 0 0 1 1.3 2.747v6.832l-3.347.023Zm0-14.917a1.319 1.319 0 0 0-.33-.878c-.213-.242-.51-.4-.831-.44h-6.578v5.082h6.214c1.225 0 1.525-.33 1.525-1.488V4.503ZM107.972 19.442h-9.9V.298h9.9c2.724 0 4.72 1.881 4.72 4.455v10.233c0 2.574-1.996 4.456-4.72 4.456Zm1.327-14.854a1.235 1.235 0 0 0-1.161-1.223h-6.753V16.37h6.744c.313-.017.608-.153.824-.38.216-.226.336-.526.337-.838l.009-10.563ZM118.473 19.442V.298h12.491v3.067h-9.168V8.32h7.107v3.131h-7.107v4.918h9.168v3.073h-12.491ZM146.579 19.442h-5.093c-2.724 0-4.715-1.882-4.715-4.456V4.753c0-2.573 1.991-4.455 4.715-4.455h5.185a4.597 4.597 0 0 1 3.326 1.339 4.53 4.53 0 0 1 1.325 3.313v1.158h-3.388V4.657a1.227 1.227 0 0 0-.34-.84 1.242 1.242 0 0 0-.826-.383h-5.448a1.24 1.24 0 0 0-.825.383 1.224 1.224 0 0 0-.337.84v10.462a1.231 1.231 0 0 0 1.162 1.218h5.448a1.24 1.24 0 0 0 .826-.38c.217-.226.338-.525.34-.838v-1.488h3.388v1.374c-.023 2.555-2 4.437-4.743 4.437ZM169.008 20l-6.246-8.91-2.258 2.445v5.952h-3.425V.311h3.425v8.7L169.372 0l2.494 2.244-6.545 6.57 6.678 9.34L169.008 20Z" fill="#FCFAFF"/><path opacity=".4" d="M174.257 19.597v-2.903h14.884v2.903h-14.884Z" fill="#FCFAFF"/></svg>