<svg width="409" height="101" fill="none" xmlns="http://www.w3.org/2000/svg"><g clip-path="url(#a)" fill="currentColor"><path d="M148.583 16.083a66.455 66.455 0 0 0-25.263-4.364h-21.14v78.09h21.14a85.474 85.474 0 0 0 25.193-3.343 30.721 30.721 0 0 0 16.736-11.86 41.272 41.272 0 0 0 5.99-23.93 37.095 37.095 0 0 0-5.99-21.643 36.64 36.64 0 0 0-16.666-12.95Zm6.448 53.033a20.077 20.077 0 0 1-11.381 8.693 58.443 58.443 0 0 1-17.194 2.287h-12.649V21.713h12.649a36.747 36.747 0 0 1 23.748 7.039c5.919 4.692 8.879 11.918 8.879 21.678a34.629 34.629 0 0 1-4.052 18.686ZM211.97 11.719l-26.25 78.09h12.227l7.504-23.297h32.486l7.505 23.297h12.368l-26.814-78.09H211.97Zm-3.524 45.749 13.248-40.893 13.178 40.752-26.426.14ZM277.365 21.713h10.711v58.102h-10.711v9.994h32.627v-9.994h-10.535V21.713h10.535V11.72h-32.627v9.994ZM396.915 61.797a19.49 19.49 0 0 1-8.738 14.076 30.261 30.261 0 0 1-16.102 4.364 26.034 26.034 0 0 1-10.916-1.667 26.002 26.002 0 0 1-9.238-6.04c-4.698-5.138-7.047-12.61-7.047-22.417a30.024 30.024 0 0 1 7.047-21.537 26.841 26.841 0 0 1 20.576-7.46 31.15 31.15 0 0 1 10.571 1.794 21.14 21.14 0 0 1 8.773 5.842 20.433 20.433 0 0 1 4.757 10.557h11.944a34.549 34.549 0 0 0-11.521-21.115 36.076 36.076 0 0 0-24.418-8.059 43.173 43.173 0 0 0-20.26 4.821 33.56 33.56 0 0 0-13.811 13.76 47.039 47.039 0 0 0-5.145 22.242 44.72 44.72 0 0 0 4.863 22.276 32.93 32.93 0 0 0 14.093 13.443 42.748 42.748 0 0 0 19.661 4.504 36.92 36.92 0 0 0 25.404-8.2 35.814 35.814 0 0 0 11.663-21.114l-12.156-.07ZM51.9 12.036a9.671 9.671 0 0 0-1.973-.212 18.616 18.616 0 0 0-10.359 4.188 18.95 18.95 0 0 0-2.331-9.13A18.978 18.978 0 0 0 30.795 0s1.268 3.026-10.007 21.396a68.98 68.98 0 0 0-9.266 37.163c-2.29 0-4.123 2.674-4.264 6.053a15 15 0 0 0-5.311 5.454A14.978 14.978 0 0 0 0 77.422a4.464 4.464 0 0 0 2.516 4.347 4.48 4.48 0 0 0 1.712.439h.74a15.589 15.589 0 0 0-2.713 3.87 4.605 4.605 0 0 0 .458 4.822l6.8 4.786A25.39 25.39 0 0 0 25.122 101a24.437 24.437 0 0 0 14.662-4.634 24.389 24.389 0 0 0 8.98-12.47 38.272 38.272 0 0 0 9.408-6.017 8.956 8.956 0 0 1 4.44-1.83c2.008 0 2.818 1.936 2.712 5.455a21.103 21.103 0 0 0 6.237-14.077h.246c3.735 0 4.017 4.54 4.017 4.54 6.765-10.769.81-21.467-14.27-36.986C46.474 19.46 51.9 12.034 51.9 12.034ZM16.948 49.76c.599-2.499 5.672-2.076 6.2.95.176 1.094.258 2.2.248 3.308 0 4.645-1.55 8.411-3.524 8.411-1.973 0-3.523-3.766-3.523-8.41.024-1.44.226-2.87.599-4.259Zm5.038 33.643v.352a8.683 8.683 0 0 1-.599 1.478h-.246c-.228.481-.5.94-.81 1.373a2.14 2.14 0 0 1-.247.352c-.32.439-.66.862-1.022 1.266-.289.3-.595.582-.916.845l-.494.387-.493.387-.74.493h-.282l-.916.493-1.127.668c-1.137.408-2.32.668-3.524.774h-.458L5.25 88.753a1.266 1.266 0 0 1 0-1.126 10.352 10.352 0 0 1 4.827-4.962l1.62-.704h10.571c-.062.487-.156.969-.282 1.443ZM10.57 80.202 4.37 78.724c-.775 0-.987-.986-.987-1.514A11.744 11.744 0 0 1 9.69 67.075l.881-.457v-1.443a5.169 5.169 0 0 1 .987-3.343c.325.29.558.67.67 1.09.25.683.58 1.333.986 1.936.25.39.52.766.81 1.126.103.085.197.18.282.282.24.275.5.534.775.774.373.363.787.682 1.234.95a13.837 13.837 0 0 1 6.166 11.543c.017.223.017.446 0 .669H10.57Z"/></g><defs><clipPath id="a"><path fill="currentColor" d="M0 0h409v101H0z"/></clipPath></defs></svg>