<svg width="432" height="432" viewBox="0 0 432 432" fill="none" xmlns="http://www.w3.org/2000/svg">
<g clip-path="url(#clip0_227_38)">
<path d="M245.245 329.026H184.271C151.806 329.026 128.021 306.71 128.021 276.194V154.894C128.021 124.324 151.806 102.008 184.271 102.008H246.014C253.365 101.881 260.666 103.226 267.478 105.962C274.289 108.698 280.47 112.768 285.649 117.927C290.827 123.086 294.896 129.228 297.609 135.982C300.323 142.736 301.626 149.963 301.44 157.229V170.912H260.9V153.699C260.88 149.999 259.439 146.444 256.87 143.753C254.3 141.062 250.793 139.436 247.057 139.202H182.129C178.383 139.422 174.862 141.043 172.281 143.736C169.7 146.428 168.252 149.99 168.231 153.699V277.769C168.252 281.478 169.7 285.04 172.281 287.733C174.862 290.425 178.383 292.046 182.129 292.266H247.057C250.793 292.032 254.3 290.406 256.87 287.715C259.439 285.024 260.88 281.469 260.9 277.769V260.177H301.275V276.466C301.439 306.709 277.709 329.026 245.245 329.026Z" fill="#FCFAFF"/>
<path opacity="0.4" d="M345.637 330V293.949H519.073V330H345.637Z" fill="#FCFAFF"/>
</g>
<defs>
<clipPath id="clip0_227_38">
<rect width="432" height="432" fill="white"/>
</clipPath>
</defs>
</svg>
